<?xml version="1.0" ?><svg style="enable-background:new 0 0 48 48;" version="1.1" viewBox="0 0 48 48" xml:space="preserve" xmlns="http://www.w3.org/2000/svg" xmlns:xlink="http://www.w3.org/1999/xlink"><g id="Icons"><g><path d="M34.211,31.09705l-1.5717-16.1561c-0.4292-4.4289-3.9359-7.774-8.3952-7.8174    c-0.0702-0.0006-0.1404-0.0006-0.2106-0.0001c-4.4708,0.0393-8.2495,3.4051-8.6648,7.847l-1.514,15.9273" style="fill:#464747;"/><g><path d="M20.5872,26.64365l-0.0926,1.1543l-5.1018,1.4891c-2.7534,0.808-4.9399,2.7357-5.877,5.2059     l-1.3651,3.6016c0,0,15.1898,6.2449,31.6986,0.0231l-1.3652-3.6016c-0.937-2.4702-3.112-4.3979-5.877-5.206l-5.1018-1.489     l-0.0926-1.2467" style="fill:#F4F4F4;"/></g><path d="M27.5935,27.74455c0.0001,3.5986-7.1201,3.5636-7.1202-0.0303v-1.4924h7.1202V27.74455z" style="fill:#DDBEA8;"/><path d="M30.2083,22.36655c0.8482,0.1582,1.0626-0.9679,1.3102-2.0407    c0.1238-0.5365,0.2349-1.0512,0.2089-1.4517c-0.0315-0.4874-0.5634-0.7829-1.025-0.6233l-0.6878,0.238v-1.9317H17.9512    c0,0,0,1.9275,0,1.9317c0-0.0597-0.7085-0.305-0.7891-0.3304c-0.2835-0.0896-0.5946-0.1231-0.8222,0.1033    c-0.4884,0.4859-0.1571,1.4966-0.0261,2.0641c0.2476,1.0728,0.4621,2.1989,1.3103,2.0407c0.8315,2.99,3.3206,5.3485,6.2676,5.3485    c3.0015,0,5.5326-2.2518,6.3166-5.3272" style="fill:#F9D9C0;"/></g></g></svg>