<?xml version="1.0" ?><svg style="enable-background:new 0 0 48 48;" version="1.1" viewBox="0 0 48 48" xml:space="preserve" xmlns="http://www.w3.org/2000/svg" xmlns:xlink="http://www.w3.org/1999/xlink"><g id="Icons"><g><g><path d="M27.0848,26.9063l-0.1539,0.9952l4.8489,1.3994c2.4888,0.7321,4.4651,2.4783,5.3121,4.716     l1.2338,3.2626c0,0-13.7297,5.657-28.6514,0.0209l1.2338-3.2626c0.7738-2.0495,2.4992-3.6911,4.7056-4.5068l5.4558-1.603     l-0.1543-1.0844" style="fill:#6352C1;"/></g><path d="M16.8476,36.0247c0.7425,0.3555,0.9621-1.8613,0.847-2.7084l-0.6796-0.3749l-0.7948,0.3749    C16.2202,33.3163,16.1051,35.6691,16.8476,36.0247z" style="fill:#A67358;"/><path d="M27.1684,27.796c0.0001,3.5986-6.3367,3.5635-6.3368-0.0303v-1.4925h6.3368V27.796z" style="fill:#DDBEA8;"/><path d="M16.2202,33.3163h1.4744c0.0836-0.2928,1.0248-1.6521,0-2.6768l-0.8103-0.4914l-0.6641,0.3972    C15.9251,30.8657,14.9845,32.0806,16.2202,33.3163z" style="fill:#8E5D47;"/><path d="M15.6137,29.531c0.0837,0.3347,0.2718,0.6796,0.6065,1.0143c0,0,0.0545-0.0592,0,0l1.4744,0.0942    c0,0,0.6901-0.9099,0.5961-1.9241c-0.0314-0.4183-0.1987-0.8471-0.5961-1.2339l-0.6909-0.4216l-0.7835,0.3065    C15.9988,27.6529,15.3603,28.5934,15.6137,29.531z" style="fill:#A67358;"/><path d="M16.4068,22.7917l-0.0073-0.0039c0.0844,0.4724,0.0982,0.9583-0.0747,1.3684    c-0.5333,1.2548-0.8575,2.4155-0.1046,3.2102c0,0,0.0527-0.0681,0,0l1.4744,0.1151c0,0,0.6199-1.7947,1.907-1.9393    c-0.9768-0.2669-1.4832-0.8391-1.9642-1.2861C16.7943,23.4726,16.4068,22.7917,16.4068,22.7917z" style="fill:#8E5D47;"/><path d="M31.8634,16.7424c-0.3555-1.1293-1.0037-3.6704-1.0037-3.6704    c-0.4827-1.821-1.4987-2.9491-2.346-3.6069c-0.6657-0.5167-1.4462-0.8498-2.2729-1.0134    c-1.6911-0.3348-5.3674-0.7152-7.7201,1.5984c-2.4749,2.4417-3.0956,5.3879-3.0083,8.4237    c0.0337,1.1705,0.2572,2.3268,0.6541,3.4284c0.0974,0.2701,0.1777,0.5756,0.233,0.8856l0.0073,0.0039    c0,0,0.2375,0.946,1.2515,1.7781c0.4662,0.3826,1.0965,0.741,1.9433,0.9724c0.1309-0.0147,0.2662-0.0181,0.411,0.005    c-1.7663-1.4438-1.8759-4.967-1.8759-4.967s0.285-2.5371,1.5563-4.6256c1.8498-3.0385,6.7893-2.4292,6.7893-2.4292    c0.2511,2.6769,2.4895,3.9855,2.7718,5.5436c0.23,1.3071,0.633,3.4874,0.424,4.2089c-0.0419,0.1359-0.0628,0.2195-0.0628,0.2195    c0.2405-0.1986,0.4706-0.3973,0.6692-0.6065c0.0628-0.0627,0.1255-0.1255,0.1778-0.1986    C32.4178,20.5068,32.1877,17.7462,31.8634,16.7424z" style="fill:#A67358;"/><path d="M27.7957,12.5074c0,0-2.8256-0.5464-5.9644,0.9648c-3.1387,1.5112-3.3971,2.8669-3.7724,5.1231    l-0.3569,1.8579l-0.6767-0.6052c0,0-0.3026,2.8356,1.3594,3.3401c0,0,1.2539,4.4166,5.4074,4.5914    c3.9087,0.1645,5.5823-2.9799,5.969-4.7492c0.3868-1.7693,0.9066-3.4666,0.3125-4.7298    C29.4796,17.0373,27.6852,14.3064,27.7957,12.5074z" style="fill:#F9D9C0;"/></g></g></svg>