<?xml version="1.0" ?><svg style="enable-background:new 0 0 48 48;" version="1.1" viewBox="0 0 48 48" xml:space="preserve" xmlns="http://www.w3.org/2000/svg" xmlns:xlink="http://www.w3.org/1999/xlink"><g id="Icons"><g><g><path d="M27.87625,25.4467c2.3641-1.7108,4.1786-4.8278,4.6184-8.385     c0.6781-5.4206-3.1889-9.8248-8.6505-9.8248c-5.4431,0-9.3101,4.4042-8.632,9.8248c0.4581,3.7267,2.4375,6.9791,4.9483,8.639" style="fill:#464747;"/><path d="M27.87625,25.4467c2.3641-1.7108,4.1786-4.8278,4.6184-8.385     c0.6781-5.4206-3.1889-9.8248-8.6505-9.8248c-5.4431,0-9.3101,4.4042-8.632,9.8248c0.4581,3.7267,2.4375,6.9791,4.9483,8.639" style="fill:#464747;"/><path d="M27.87625,25.3205l-0.7819,1.9869l5.778,0.7885l0.9785,0.2853     c3.1706,0.9346,5.6631,3.1523,6.7261,6.0113l1.5761,4.1603c0,0-15.2361,6.6626-33.5268,0.9248     c-0.9192-0.2883-1.0438-0.8418-1.9769-1.1953l1.2878-3.3782c1.0812-2.8407,3.1322-5.3519,6.3028-6.2866l5.7373-1.9774     l0.5627-0.9892" style="fill:#F43735;"/><polygon points="20.37695,25.1041 19.61565,27.8617 24.55245,41.557 28.48245,28.0085 27.58455,25.0305         " style="fill:#F9D9C0;"/><path d="M28.23265,26.7024l-0.1684,0.8969c0,0-1.0874,0.5222-3.5474,0.9622     c-2.46,0.43-4.5483-1.7573-4.5483-1.7573l-0.0259-0.1518l0.413-1.7384c0.46,0.47,1.3132,0.6842,2.0132,0.9242     c0.6,0.21,1.0788,0.2191,1.7188,0.1791c0.64,0.04,1.1415,0.0381,1.7415-0.172c0.86-0.2899,1.5103-0.5262,2.0203-1.1462     L28.23265,26.7024z" style="fill:#DDBEA8;"/><path d="M28.21835,26.6273l4.6542,1.4687c0,0-2.3427,0.4984-5.0481,1.0533     c-2.7055,0.5548-7.3238,1.1811-10.0371-1.8969l2.1613-0.6251c0,0,2.1521,1.9094,4.6123,1.4721     C27.02105,27.6622,28.21835,26.6273,28.21835,26.6273z" style="fill:#FFC601;"/><path d="M18.29305,27.1327c0,0-4.1947,1.5898-6.5241,5.0313c-2.3294,3.4415-3.14,7.3145-3.14,7.3145     l-2.782-0.9623c0,0,0.5156-2.09,1.7304-4.5794c1.2147-2.4893,2.2926-3.74,4.7699-4.8869     C14.82455,27.9029,18.29305,27.1327,18.29305,27.1327z" style="fill:#FFC601;"/><path d="M23.94375,26.4479c0.6464,0.0457,1.2877-0.0432,1.8943-0.2511     c3.1152-1.0679,3.674-4.8191,4.033-7.4482c0.0847-0.6205,0.6507-3.235-0.5868-3.0178c-4.1239,0.7236-9.6525-2.6201-9.6525-2.6201     s-1.933,2.4829-1.5592,5.6379c0.3121,2.6342,0.9178,6.3803,4.033,7.4482c0.6066,0.2079,1.2478,0.2968,1.8943,0.2511" style="fill:#F9D9C0;"/><g><g><path d="M32.56545,9.1406c-0.1025,0-0.2051-0.0391-0.2832-0.1172c-0.1562-0.1563-0.1562-0.4102,0-0.5664       l2.1477-2.148c0.1563-0.1563,0.4102-0.1563,0.5664,0c0.1563,0.1562,0.1563,0.4101,0,0.5664l-2.1477,2.148       C32.77055,9.1015,32.66805,9.1406,32.56545,9.1406z" style="fill:#A67358;"/></g><g><path d="M15.15325,9.1525c-0.1025,0-0.205-0.039-0.2832-0.1171l-2.1598-2.16       c-0.1563-0.1563-0.1563-0.4102,0-0.5664c0.1562-0.1563,0.4101-0.1563,0.5664,0l2.1598,2.16       c0.1563,0.1562,0.1563,0.4101,0,0.5664C15.35835,9.1135,15.25585,9.1525,15.15325,9.1525z" style="fill:#A67358;"/></g></g><g><path d="M23.99635,21.2084c-0.0391,0-0.0771-0.0059-0.1152-0.0176l-0.4239-0.1269      c-0.2109-0.0635-0.331-0.2862-0.2675-0.4981c0.0634-0.2109,0.2822-0.3311,0.498-0.2676l0.3086,0.0918l0.3086-0.0918      c0.2139-0.0635,0.4346,0.0567,0.4981,0.2676c0.0634,0.2119-0.0567,0.4346-0.2676,0.4981l-0.4239,0.1269      C24.07355,21.2025,24.03545,21.2084,23.99635,21.2084z" style="fill:#CEAA91;"/></g><g><path d="M24.00315,23.5707c-0.2568,0-0.4873-0.042-0.6552-0.084      c-0.5674-0.1436-0.6338-0.3018-0.669-0.3867c-0.0849-0.2041,0.0117-0.4385,0.2149-0.5235      c0.1377-0.0566,0.2851-0.0332,0.3945,0.0489c0.166,0.0791,0.918,0.3203,1.4043-0.0742      c0.1709-0.1407,0.4219-0.1143,0.5625,0.0585c0.1396,0.1719,0.1133,0.4239-0.0586,0.5625      C24.81565,23.4808,24.38115,23.5707,24.00315,23.5707z" style="fill:#CEAA91;"/></g><g><path d="M25.68585,18.2855c-0.1768,0-0.3379-0.1172-0.3858-0.2959      c-0.0586-0.2129,0.0674-0.4326,0.2813-0.4902c0.455-0.124,1.9902-0.4824,2.6045,0.0937      c0.1611,0.1514,0.1689,0.4053,0.0185,0.5655c-0.1533,0.1621-0.4053,0.1689-0.5654,0.0185      c-0.1934-0.1816-1.1338-0.0986-1.8486,0.0938C25.75515,18.2806,25.71995,18.2855,25.68585,18.2855z" style="fill:#CEAA91;"/></g><g><path d="M22.30695,18.2855c-0.0342,0-0.0694-0.0049-0.1045-0.0146      c-0.793-0.2129-1.6719-0.2588-1.8487-0.0938c-0.1601,0.1504-0.4131,0.1436-0.5654-0.0185      c-0.1504-0.1602-0.1426-0.4141,0.0186-0.5655c0.6142-0.5771,2.1494-0.2177,2.6044-0.0937      c0.2139,0.0576,0.3389,0.2773,0.2813,0.4902C22.64475,18.1683,22.48365,18.2855,22.30695,18.2855z" style="fill:#CEAA91;"/></g><ellipse cx="31.89495" cy="9.41065" rx="1.59244" ry="1.59244" style="fill:#FFC601;" transform="matrix(0.70712 -0.70709 0.70709 0.70712 2.68713 25.3088)"/><ellipse cx="15.81175" cy="9.41065" rx="1.59244" ry="1.59244" style="fill:#FFC601;" transform="matrix(0.70709 -0.70712 0.70712 0.70709 -2.02308 13.93731)"/></g></g></g></svg>