<?xml version="1.0" ?><svg style="enable-background:new 0 0 48 48;" version="1.1" viewBox="0 0 48 48" xml:space="preserve" xmlns="http://www.w3.org/2000/svg" xmlns:xlink="http://www.w3.org/1999/xlink"><g id="Icons"><g><path d="M28.23922,36.82167c2.38879-1.4804,3.40938-3.31958,2.63548-4.69904    c-0.56066-1.00933-1.51395-1.48041-0.7065-4.11588c0.30283-0.98694,0.98209-2.21967,1.77198-4.01493    c1.68698-3.83412,1.74889-7.94638-0.7745-11.97256c-1.67104-2.68037-4.78884-4.14953-7.91778-3.86909    c-2.84167,0.25457-5.40533,1.95105-6.73243,4.48085c-1.04813,1.99795-1.3754,3.31558-1.31052,5.5477    c0.0326,1.11816,0.15909,2.242,0.39705,3.33567c0.25783,1.18525,0.89535,2.25231,0.79094,3.51242    c-0.18685,2.25452-2.31035,4.29734-4.13375,5.42184c-0.07844,0.04477,1.46789-1.01764,1.46789-1.01764" style="fill:#464747;"/><path d="M20.69157,26.05539l-0.08969,1.12142l-1.41311,0.41503l-2.17565,0.6392h-0.01125l-1.34581,0.39252    c-0.6392,0.19061-1.24487,0.43742-1.80563,0.74015c-0.07844,0.0449-0.12334,0.0673-0.12334,0.0673    c-1.74948,0.96454-3.09529,2.46734-3.76825,4.25047l-1.32331,3.49907c0,0,14.72518,6.06735,30.72897,0.02248l-1.32341-3.49905    c-0.90839-2.40004-3.01685-4.27297-5.69723-5.05804l-2.17565-0.63918" style="fill:#6352C1;"/><path d="M27.94966,27.13809c0.00007,3.84891-7.35583,3.81145-7.35589-0.03239V25.5094h7.35589V27.13809z" style="fill:#DDBEA8;"/><path d="M21.03771,12.90132c0,0-0.0656,1.79774-1.42663,3.82616s-1.94016,3.73806-1.52293,5.17149    s1.81179,3.18154,3.26527,4.28148c1.45348,1.09993,4.0069,1.4142,5.83357-0.29462s2.26644-4.23275,1.71265-5.58313    c-0.55379-1.35038-1.37205-1.39408-2.89141-2.33904S21.64515,15.09982,21.03771,12.90132z" style="fill:#F9D9C0;"/><path d="    M26.2384,29.604c-2.17099,0.98857-5.64459,0.15625-5.64464-2.48639" style="fill:none;stroke:#303030;stroke-width:0.8;stroke-linecap:round;stroke-linejoin:round;stroke-miterlimit:10;"/><path d="M28.95422,20.06676c0,0,0.86414,2.18017-1.05471,4.93808s-2.46102,2.84828-1.17337,5.46876    c1.28765,2.62048,4.42565,3.03514,1.84008,6.1373c0,0,3.33311-2.18399,2.6328-3.81049    c-0.7003-1.6265-1.76322-2.33588-1.03916-5.04234S31.70188,22.73973,28.95422,20.06676z" style="fill:#464747;"/><path d="    M20.69157,26.05539l-0.08969,1.12142l-1.41311,0.41503l-2.17565,0.6392h-0.01125l-1.34581,0.39252    c-0.6392,0.19061-1.24487,0.43742-1.80563,0.74015c-0.07844,0.0449-0.12334,0.0673-0.12334,0.0673    c-1.74948,0.96454-3.09529,2.46734-3.76825,4.25047l-1.32331,3.49907c0,0,14.72518,6.06735,30.72897,0.02248l-1.32341-3.49905    c-0.90839-2.40004-3.01685-4.27297-5.69723-5.05804l-2.17565-0.63918" style="fill:none;stroke:#303030;stroke-width:0.8;stroke-linecap:round;stroke-linejoin:round;stroke-miterlimit:10;"/><path d="    M27.7204,25.26888c-2.00912,2.48919-7.33786,2.87022-9.56335-2.80236" style="fill:none;stroke:#303030;stroke-width:0.8;stroke-linecap:round;stroke-linejoin:round;stroke-miterlimit:10;"/><path d="    M28.23922,36.82167c0.21314-0.20189,2.3215-2.35514,0.90839-3.49907c-1.4803-1.19997-4.73269-4.12702-2.00741-7.33451    c1.51151-1.63885,2.54578-4.45238,1.5701-6.0785c-0.47107-0.78505-3.91409-2.55703-4.69914-3.24114    c-1.14392-0.98694-2.78121-2.44486-2.99435-4.03744c0.0673,0.47107-0.0224,0.94214-0.15699,1.39069    c-0.94598,3.08708-3.30114,4.63777-2.70277,8.44481c0.38876,2.25983,1.31859,2.78897,1.03173,5.12532" style="fill:none;stroke:#303030;stroke-width:0.8;stroke-linecap:round;stroke-linejoin:round;stroke-miterlimit:10;"/><path d="    M28.23922,36.82167c2.38879-1.4804,3.40938-3.31958,2.63548-4.69904c-0.56066-1.00933-1.51395-1.48041-0.7065-4.11588    c0.30283-0.98694,0.98209-2.21967,1.77198-4.01493c1.68698-3.83412,1.74889-7.94638-0.7745-11.97256    c-1.67104-2.68037-4.78884-4.14953-7.91778-3.86909c-2.84167,0.25457-5.40533,1.95105-6.73243,4.48085    c-1.04813,1.99795-1.3754,3.31558-1.31052,5.5477c0.0326,1.11816,0.15909,2.242,0.39705,3.33567    c0.25783,1.18525,0.89535,2.25231,0.79094,3.51242c-0.18685,2.25452-2.31035,4.29734-4.13375,5.42184    c-0.07844,0.04477,1.46789-1.01764,1.46789-1.01764" style="fill:none;stroke:#303030;stroke-width:0.8;stroke-linecap:round;stroke-linejoin:round;stroke-miterlimit:10;"/><path d="    M28.56623,19.72737c0,0,3.46489,2.51217,1.93708,7.39025" style="fill:none;stroke:#303030;stroke-width:0.8;stroke-linecap:round;stroke-linejoin:round;stroke-miterlimit:10;"/></g></g></svg>