<?xml version="1.0" ?><svg style="enable-background:new 0 0 48 48;" version="1.1" viewBox="0 0 48 48" xml:space="preserve" xmlns="http://www.w3.org/2000/svg" xmlns:xlink="http://www.w3.org/1999/xlink"><g id="Icons"><g><path d="M20.791,28.27741l-0.0289,1.09l-4.8552,1.4011c-2.589,0.7614-4.6449,2.5781-5.526,4.9059    l-1.2836,3.3939c0,0,14.2827,5.8849,29.8054,0.0218l-1.2836-3.3939c-0.8811-2.3279-2.9261-4.1445-5.526-4.906l-4.9173-1.4283    l0.0332-1.1492" style="fill:#F43735;"/><path d="M27.2677,29.35201c0.0001,3.5985-6.5354,3.5635-6.5354-0.0303v-1.4925h6.5354V29.35201z" style="fill:#DDBEA8;"/><g><path d="M25.7924,15.87211c2.3621,4.632,1.5025,2.9317,2.6317,4.8905     c1.1176,1.9472,0.3737,5.7183,0.3737,5.7183c3.2032-2.0854,2.9843-6.6137,2.9843-6.6137c0-2.6618-1.1062-4.8164-2.293-6.2913     c-0.9563-1.1868-2.1776-1.9933-3.5028-2.4081c-1.3251-0.4379-2.7423-0.4725-4.0789-0.1153     c-3.1801,0.8066-5.9225,3.7563-5.9225,8.8031l-0.0057-0.0007c0,0-0.2746,4.5444,3.185,6.626c0,0-1.7229-3.2115-0.5063-5.1632     c1.2166-1.9516,4.5913-0.8189,7.1384-5.4407" style="fill:#464747;"/></g><path d="M26.8966,9.20151c0,0.8299-0.3456,1.5787-0.9103,2.0971c-1.3251-0.4377-2.7423-0.4723-4.0789-0.115    c-0.4955-0.5073-0.795-1.21-0.795-1.9821c0-1.6015,1.302-2.8918,2.8921-2.8918C25.6061,6.30971,26.8966,7.60001,26.8966,9.20151z" style="fill:#2C2D2D;"/><path d="M25.7861,15.64291c0,0-1.325,2.7207-4.5644,3.7644c-3.2393,1.0436-3.6538,1.1065-3.5598,3.3029    c0.0939,2.1964,2.3595,6.1932,5.7579,6.473s5.6-1.8945,6.3746-4.9861c0.7746-3.0916,0.1267-3.6443-0.9966-4.4889    C27.6746,18.86361,26.0758,16.56001,25.7861,15.64291z" style="fill:#F9D9C0;"/></g></g></svg>