<?xml version="1.0" ?><svg style="enable-background:new 0 0 48 48;" version="1.1" viewBox="0 0 48 48" xml:space="preserve" xmlns="http://www.w3.org/2000/svg" xmlns:xlink="http://www.w3.org/1999/xlink"><g id="Icons"><g><path d="M31.57435,33.96917c-4.98047,3.82172-10.0686,3.78436-15.26099,0    c0,0-0.09198,4.36475,0.72467,7.47321c4.57135,1.22296,9.23492,1.21539,13.98907,0    C31.02711,41.44237,31.57435,36.34627,31.57435,33.96917z" style="fill:#FFC601;"/><path d="M17.11446,28.48158c0,0-1.46297,7.80243-0.07644,12.96081c0,0-6.60247-0.82921-10.46208-2.7594    c0,0,0.87106-3.79632,2.07309-5.31316c1.20203-1.51684,3.16617-3.55551,5.98429-4.23338    C17.45144,28.45858,17.11446,28.48158,17.11446,28.48158z" style="fill:#1D97FF;"/><path d="M30.95067,28.48158c0,0,1.46297,7.80243,0.07644,12.96081c0,0,6.60247-0.82921,10.46208-2.7594    c0,0-0.87106-3.79632-2.07309-5.31316c-1.20203-1.51684-3.16617-3.55551-5.98429-4.23338    C30.61369,28.45858,30.95067,28.48158,30.95067,28.48158z" style="fill:#1D97FF;"/><path d="M20.4939,25.85938c-0.00578,0.00617-0.38393,1.72707-0.38393,1.72707l-3.02147,0.99119    c0,0-0.81652,3.60325-0.70597,5.39154c0,0,3.84072,3.06634,7.89635,2.84039c4.05563-0.22594,7.46022-2.84039,7.46022-2.84039    l-0.80098-5.48761l-3.05992-0.8596l-0.47123-1.85697L20.4939,25.85938z" style="fill:#F9D9C0;"/><path d="M21.3258,10.13789c0,0-2.98509,1.20863-3.61463,3.5101s-0.63602,5.33536-0.63602,5.33536    l-1.08414-1.01365c0,0-0.53084,1.62353,0,2.67703c0.53084,1.0535,1.72359,1.04205,1.72359,1.04205    s0.78356,2.34428,2.25888,3.74679c1.47532,1.40251,4.87118,2.84806,7.58259,0.18901s2.47306-4.04888,2.47306-4.04888    s1.3276-1.67754,0.41873-3.32625c-0.90887-1.64871-2.21642-2.73619-3.29738-3.26165    C26.06952,14.46231,22.16134,12.11031,21.3258,10.13789z" style="fill:#F9D9C0;"/><path d="M25.52759,23.03648c-0.33512,0.67937-0.91123,0.9914-1.68071,0.98275    c-0.75349-0.00853-1.3097-0.33003-1.63417-0.97991c0.3504-0.18663,0.65841-0.42109,1.0049-0.51727    c0.43839-0.12171,0.91656-0.15451,1.35778,0.01791C24.89429,22.66465,25.18714,22.85589,25.52759,23.03648z" style="fill:#F43735;"/><path d="M23.73049,5.92683c0,0-3.15918-0.99578-5.76112,1.38557s-3.92008,4.23746-3.61452,6.25336    c0.30556,2.01589,0.79166,4.30676,2.72031,5.41758c0,0-0.57321-2.88432,0.51658-4.96688s3.20582-3.73713,3.84451-3.71904    c0,0,1.13161,2.19254,3.58888,3.46049s7.18369,4.08024,5.13136,7.81778c0,0,2.16887-1.50018,2.77143-4.4772    s-0.04081-7.21632-2.77143-9.45844S23.73049,5.92683,23.73049,5.92683z" style="fill:#A67358;"/><path d="M25.29257,9.64518c0,0-3.40043-0.68046-5.92757,1.63389s-4.34701,5.17609-4.34701,5.17609    s-0.95424-1.60745-0.66452-3.34782c0,0,2.33293-3.55295,5.72379-4.12334S25.29257,9.64518,25.29257,9.64518z" style="fill:#F43735;"/><path d="M29.82039,10.73164c2.31123,1.3897,3.35106,3.85252,3.35106,3.85252    c-0.00665,1.26373-0.25366,2.56635-0.70435,3.90186c0,0-1.00345-5.09439-4.62125-7.75012" style="fill:#F43735;"/><path d="M26.61278,10.05134c0,0-2.91439-0.32956-2.80982-3.40274    C23.80295,6.6486,27.63058,7.11671,26.61278,10.05134z" style="fill:#F43735;"/><path d="M26.61278,10.05134c0,0,1.50805-2.41987,5.6592-1.9481    C32.27198,8.10325,30.19113,12.71575,26.61278,10.05134z" style="fill:#F43735;"/><g><path d="     M16.06859,18.06553c-0.31973,0.53679-0.43815,1.33078-0.29604,1.99049c0.24868,1.06245,1.11313,1.7893,1.94206,1.63275" style="fill:none;stroke:#30302F;stroke-width:0.8;stroke-linecap:round;stroke-linejoin:round;stroke-miterlimit:10;"/><path d="     M30.02914,21.6691c-0.76439,3.04773-3.28065,5.32372-6.20688,5.32372c-2.87341,0-5.30027-2.33722-6.11108-5.30016" style="fill:none;stroke:#30302F;stroke-width:0.8;stroke-linecap:round;stroke-linejoin:round;stroke-miterlimit:10;"/></g><path d="    M20.98626,10.38031c-1.21971,0.55657-4.66567,2.69993-3.89595,8.72741c0,0-0.47367-0.3671-1.01839-1.03024v-0.01184    c-0.3671-0.42631-0.74603-0.95919-1.05392-1.61049c-0.40262-0.81708-0.68682-1.78811-0.66314-2.8894    c0.04737-1.75259,0.88814-3.83675,3.36307-6.07485c0,0,3.33939-2.56967,6.26431-1.48023c0,0,3.65912-0.87629,6.46563,2.06047" style="fill:none;stroke:#30302F;stroke-width:0.8;stroke-linecap:round;stroke-linejoin:round;stroke-miterlimit:10;"/><path d="    M31.51601,9.45591c0.2252,0.36265,0.4402,0.76158,0.63708,1.19676c2.65257,5.87354-0.55656,9.93528-2.11968,11.01288    c0,0,2.39204-3.05519-1.98942-5.90906c-4.31042-2.80651-5.67223-3.73017-6.60773-5.45907" style="fill:none;stroke:#30302F;stroke-width:0.8;stroke-linecap:round;stroke-linejoin:round;stroke-miterlimit:10;"/><path d="    M27.48741,25.67992l0.39078,1.94206l5.64854,1.5868c3.06703,0.86445,5.48276,2.93677,6.52484,5.58933l1.51575,3.86043    c0,0-15.80881,8.12348-35.13464-0.03552l1.51575-3.86043c1.03024-2.65257,3.44597-4.71304,6.51299-5.57749l5.64854-1.59864    l0.5028-1.64139" style="fill:none;stroke:#30302F;stroke-width:0.8;stroke-linecap:round;stroke-linejoin:round;stroke-miterlimit:10;"/><path d="    M30.93811,28.48158c0,0,1.80232,6.30115,0,13.26637" style="fill:none;stroke:#30302F;stroke-width:0.8;stroke-linecap:round;stroke-linejoin:round;stroke-miterlimit:10;"/><path d="    M17.11446,28.48158c0,0-1.80244,6.30115,0,13.26637" style="fill:none;stroke:#30302F;stroke-width:0.8;stroke-linecap:round;stroke-linejoin:round;stroke-miterlimit:10;"/><path d="    M16.38252,33.96919c8.97159,6.39244,15.28387,0.01411,15.28387,0.01411" style="fill:none;stroke:#30302F;stroke-width:0.8;stroke-linecap:round;stroke-linejoin:round;stroke-miterlimit:10;"/><path d="    M14.35485,13.56576c0,0,3.20984-6.36083,10.22019-4.46614" style="fill:none;stroke:#30302F;stroke-width:0.8;stroke-linecap:round;stroke-linejoin:round;stroke-miterlimit:10;"/><path d="    M15.01361,16.45409c0.07247-0.09059,3.95966-8.7601,11.59917-6.40275" style="fill:none;stroke:#30302F;stroke-width:0.8;stroke-linecap:round;stroke-linejoin:round;stroke-miterlimit:10;"/><path d="    M32.46713,18.48603c0,0-1.00347-5.0944-4.62127-7.75014" style="fill:none;stroke:#30302F;stroke-width:0.8;stroke-linecap:round;stroke-linejoin:round;stroke-miterlimit:10;"/><path d="    M29.82039,10.73164c2.31123,1.3897,3.35109,3.85251,3.35109,3.85251" style="fill:none;stroke:#30302F;stroke-width:0.8;stroke-linecap:round;stroke-linejoin:round;stroke-miterlimit:10;"/><path d="    M26.61278,10.05134c0,0-2.91439-0.32956-2.80982-3.40274C23.80295,6.6486,27.63058,7.11671,26.61278,10.05134z" style="fill:none;stroke:#30302F;stroke-width:0.8;stroke-linecap:round;stroke-linejoin:round;stroke-miterlimit:10;"/><path d="    M26.61278,10.05134c0,0,1.50805-2.41987,5.6592-1.9481C32.27198,8.10325,30.19113,12.71575,26.61278,10.05134z" style="fill:none;stroke:#30302F;stroke-width:0.8;stroke-linecap:round;stroke-linejoin:round;stroke-miterlimit:10;"/><path d="    M25.52759,23.03648c-0.33512,0.67937-0.91123,0.9914-1.68071,0.98275c-0.75349-0.00853-1.3097-0.33003-1.63417-0.97991    c0.3504-0.18663,0.65841-0.42109,1.0049-0.51727c0.43839-0.12171,0.91656-0.15451,1.35778,0.01791    C24.89429,22.66465,25.18714,22.85589,25.52759,23.03648z" style="fill:none;stroke:#30302F;stroke-width:0.8;stroke-linecap:round;stroke-linejoin:round;stroke-miterlimit:10;"/><path d="    M19.365,15.6961c0,0,1.73743-0.66622,3.21422,0.51251" style="fill:none;stroke:#30302F;stroke-width:0.8;stroke-linecap:round;stroke-linejoin:round;stroke-miterlimit:10;"/><path d="    M25.52167,16.20648c0.73419-0.58025,1.53944-0.71051,2.15521-0.69867" style="fill:none;stroke:#30302F;stroke-width:0.8;stroke-linecap:round;stroke-linejoin:round;stroke-miterlimit:10;"/><path d="    M23.1211,20.68434c0.126,0.02428,0.25235,0.04678,0.37894,0.06726c0.14554,0.02368,0.29297,0.045,0.44087,0.03766    c0.22795-0.01125,0.45461-0.07212,0.6783-0.11392" style="fill:none;stroke:#30302F;stroke-width:0.8;stroke-linecap:round;stroke-linejoin:round;stroke-miterlimit:10;"/><path d="    M25.77781,17.73739c0,0,1.59864-0.43329,2.06012,0" style="fill:none;stroke:#30302F;stroke-width:0.8;stroke-linecap:round;stroke-linejoin:round;stroke-miterlimit:10;"/><path d="    M21.84325,17.73739c0,0-1.59853-0.43329-2.06012,0" style="fill:none;stroke:#30302F;stroke-width:0.8;stroke-linecap:round;stroke-linejoin:round;stroke-miterlimit:10;"/></g></g></svg>