<?xml version="1.0" ?><svg style="enable-background:new 0 0 48 48;" version="1.1" viewBox="0 0 48 48" xml:space="preserve" xmlns="http://www.w3.org/2000/svg" xmlns:xlink="http://www.w3.org/1999/xlink"><g id="Icons"><g><path d="M20.6659,26.5884l0.0776,1.1211l-5.1524,1.4672c-2.69,0.7911-4.826,2.6787-5.7415,5.0974    l-1.3337,3.5262c0,0,14.8399,6.1146,30.9682,0.0227l-1.3336-3.5264c-0.9155-2.4187-3.0403-4.3061-5.7415-5.0973l-5.1329-1.5174    l0.0581-1.1613" style="fill:#1D97FF;"/><path d="M27.3749,27.7384c0.0001,3.5985-6.7497,3.5635-6.7498-0.0303v-1.4925h6.7498V27.7384z" style="fill:#DDBEA8;"/><path d="M29.3584,24.3137c4.8631-0.8605,3.813-9.1836,3.813-9.1836    c-0.453-4.3365-4.1541-7.6116-8.8606-7.6542c-0.074-0.0007-0.1482-0.0007-0.2223-0.0001    c-4.7186,0.0384-8.7066,3.3341-9.145,7.6832c0,0-1.5366,7.9962,3.6955,9.1547" style="fill:#FFC601;"/><path d="M16.9485,18.2366l0.9968,1.3681c0,0,0.9078-2.712,4.8452-2.3153    c3.5894,0.3617,7.5166-3.4833,7.5166-3.4833l-0.2834,1.911c-0.0982,0.6627-0.1476,1.3318-0.1476,2.0018v0.885l1.0746-0.3725    c0.8286,0.155,0.6366,1.1207,0.3947,2.1712c-0.242,1.0505-0.4514,2.153-1.2801,1.998v0.0208    c-0.7659,3.0114-3.2388,5.2161-6.171,5.2161c-2.8791,0-5.311-2.3092-6.1233-5.2369c-0.8287,0.155-1.0382-0.9475-1.2801-1.998    c-0.242-1.0505-0.4247-2.0524,0.404-2.2075L16.9485,18.2366z" style="fill:#F9D9C0;"/></g></g></svg>