<?xml version="1.0" ?><svg style="enable-background:new 0 0 48 48;" version="1.1" viewBox="0 0 48 48" xml:space="preserve" xmlns="http://www.w3.org/2000/svg" xmlns:xlink="http://www.w3.org/1999/xlink"><g id="Icons"><g><path d="M40.475,37.80315c0,0-6.33,3.36-15.79,3.47c-0.26,0.01-0.53,0.02-0.8,0.01    c-4.82-0.03-10.41-0.92-16.36-3.51l1.43-3.74c0.97-2.55,3.24-4.56,6.11-5.4l1.48-0.44l4.41-2.64h6.68l4.23,2.81l1.08,0.31    c2.87,0.83,5.13,2.83,6.11,5.4L40.475,37.80315z" style="fill:#464747;"/><path d="M31.3658,23.93766c-0.3485-0.5986-0.7084-1.1628-1.1033-1.7501    c-0.0348,0.0231-0.058,0.0346-0.0928,0.0461c0,0-0.3687-0.2656-0.4384-0.1274c-0.302,0.5988-0.9088,2.4136-2.3488,3.542    c0,0,0.1742,0.1727,0.3833,0.449c0.3272,0.4637,0.6441,0.9601,0.7442,1.5264c0.0963,0.5446,0.0938,1.128,0.0807,1.6791    c-0.01,0.4183-0.0254,0.8373,0.0093,1.2549c0.0899,1.0823,0.577,2.0241,1.2994,2.8239c0.1301,0.144,0.2658,0.2829,0.4057,0.4174    c0.0756,0.0727,0.1525,0.144,0.2303,0.2142c0.0545,0.0492,0.2279,0.1519,0.2497,0.2182c-0.1161-0.357-0.2671-0.6678-0.3135-1.0132    c-0.1859-1.4048,0.1974-2.5677,0.8709-3.6385c0.209-0.334,0.3949-0.714,0.4994-1.1284c0.0116-0.0346,0.0116-0.0575,0.0232-0.0921    C32.26,26.79325,32.1206,25.28485,31.3658,23.93766z" style="fill:#E5AB05;"/><path d="M18.2006,22.38066c-0.2671,0.4145-0.8634,1.1336-1.1189,1.5596    c-0.7664,1.3701-0.8941,2.913-0.4761,4.5134c0.1045,0.4146,0.2904,0.7946,0.4994,1.1284c0.6736,1.0708,1.0568,2.2338,0.871,3.6385    c-0.0465,0.3454-0.1974,0.6563-0.3136,1.0133c2.729-2.3144,2.1251-3.9609,2.1949-5.642c-0.0116-0.1266,0-0.2532,0.0115-0.38    c0.0349-0.3568,0.151-0.7023,0.2904-1.0016c0.1625-0.357,0.3439-0.9553,0.5065-1.1856c0.1625-0.2187,0.526-0.6225,0.6073-0.7145" style="fill:#E5AB05;"/><g><g><path d="M24.685,26.11316v15.16c-0.26,0.01-0.53,0.02-0.8,0.01v-15.17c0-0.22,0.18-0.4,0.4-0.4      S24.685,25.89316,24.685,26.11316z" style="fill:#333333;"/></g></g><g><path d="M26.2227,11.55846c-0.1103-0.0501-1.5795,2.7712-3.5629,3.4894     c-1.9834,0.7181-4.1325,1.6966-4.9355,2.9439c-0.803,1.2472,0.0633,2.8468,0.5524,4.0175     c0.372,0.8908,0.7902,1.8258,1.4827,2.5159c0.7027,0.7004,1.5216,1.2935,2.4363,1.6846     c1.0387,0.4441,2.2041,0.6194,3.3146,0.4126c1.5537-0.2893,2.5733-1.296,3.4653-2.5273c0.4006-0.553,0.7994-1.1187,1.1271-1.7194     c0,0,1.2009-0.6146,1.2166-1.9355s-0.0963-1.7962-0.8012-1.9005C30.5181,18.53966,31.0838,13.76916,26.2227,11.55846z" style="fill:#F9D9C0;"/><g><path d="M23.9088,15.91796h5.8692c0,0,1.325,1.0318,0.7401,2.6217l-13.0415,0.2883      c0,0-0.3371-2.0639,1-2.2447C19.8137,16.40236,23.0825,16.86606,23.9088,15.91796z" style="fill:#F43735;"/><path d="M31.2109,19.13326c0,0,0.1085-0.2943,0.213-0.7088c0.2787-1.0708,0.7433-3.2009,0.5226-4.6977      c-0.3019-2.1301-1.2193-4.2142-2.938-5.4461c-0.5276-0.358-4.776-3.0042-9.2877-0.5066      c-1.2251,0.6782-2.1711,1.7733-2.8159,2.9986c-1.2541,2.3835-1.414,4.7273-0.9959,7.41c0,0.023,0.0116,0.0346,0.0116,0.0461      c0.0697,0.4836,0.1858,0.9556,0.3251,1.4162c0.4297,1.4163,1.4654,3.2978,2.8241,3.9426      c-0.2555-0.3224-0.4782-0.8683-0.6757-1.3058c-0.209-0.4837-0.418-0.9673-0.5922-1.4624      c-0.0232-0.046-0.0232-0.0921-0.0464-0.1382c0-0.023-0.0117-0.046-0.0117-0.0691c-0.36-0.9901-0.3251-1.704-0.1973-2.1646      c0.1045-0.4029,0.2787-0.6217,0.3367-0.6908c0.2787-0.3109,1.08-0.5066,1.9394-0.6447      c0.0928-0.0116,0.1858-0.0231,0.2787-0.0346c0.1393-0.0231,0.267-0.0461,0.3949-0.0576      c0.4877-0.0691,0.9754-0.1382,1.4515-0.2418c0.2672-0.0575,0.5342-0.1151,0.8014-0.1957      c0.1509-0.0461,0.3019-0.0921,0.4529-0.1613c0.5574-0.2763,1.0451-0.8174,1.4283-1.3126      c0.3949-0.5065,0.7201-1.0823,0.9871-1.681c0.1278-0.2648,0.2324-0.5411,0.3369-0.8174      c1.0103,0.5181,1.9161,1.1168,2.7058,1.8997c0.8709,0.8637,1.5445,1.8653,1.7535,3.1665      c0.0349,0.2186,0.1045,0.5641,0.1045,0.8635C30.5181,18.53966,31.0752,18.58746,31.2109,19.13326z" style="fill:#FFC601;"/><path d="M25.9105,23.12045c-0.3286,0.6605-0.8936,0.964-1.6482,0.9555      c-0.739-0.0083-1.2844-0.3208-1.6025-0.9527c0.3436-0.1815,0.6457-0.4094,0.9853-0.5029      c0.4301-0.1184,0.899-0.1503,1.3317,0.0174C25.2894,22.75896,25.5767,22.94485,25.9105,23.12045z" style="fill:#464747;"/><g><path d="M24.2848,20.99055c-0.0381,0-0.0772-0.0058-0.1143-0.0176l-0.5039-0.1503       c-0.2119-0.0625-0.332-0.2852-0.2686-0.4971c0.0635-0.2119,0.2862-0.3311,0.4971-0.2686l0.3897,0.1162l0.3906-0.1171       c0.2129-0.0586,0.4346,0.0576,0.498,0.2695c0.0625,0.2119-0.0576,0.4346-0.2695,0.498l-0.5049,0.1504       C24.3619,20.98476,24.3229,20.99055,24.2848,20.99055z" style="fill:#CEAA91;"/></g></g></g></g></g></svg>