<?xml version="1.0" ?><svg style="enable-background:new 0 0 48 48;" version="1.1" viewBox="0 0 48 48" xml:space="preserve" xmlns="http://www.w3.org/2000/svg" xmlns:xlink="http://www.w3.org/1999/xlink"><g id="Icons"><g><g><path d="M20.60381,29.36308l-4.93787,1.44336c-2.67704,0.78245-4.78787,2.65516-5.69612,5.05353     l-1.32378,3.49601c0,0,14.71614,6.06914,30.7079,0.02799l-1.32389-3.49601c-0.90825-2.39837-3.01896-4.27108-5.696-5.05364     l-4.93798-1.44324" style="fill:#F43735;"/></g><g><path d="M20.6924,28.24307l-0.08963,1.12058l-4.94167,1.44555     c-2.66691,0.7844-4.78476,2.65573-5.69243,5.05376L8.6464,39.3592c0,0,14.71303,6.06223,30.7034,0.02235l-1.32228-3.49612     c-0.90755-2.39803-3.01424-4.26935-5.69243-5.05378l-4.94167-1.44552l-0.08963-1.21019" style="fill:#F43735;"/></g><path d="M20.56614,28.06975v1.0412l-3.87007,1.39434c0,0,2.1838,6.26931,7.22081,9.20628    c0,0,6.35371-4.01522,7.64118-9.10407l-4.16199-1.21644l-0.09228-1.21514C27.30379,28.17593,23.58723,30.82041,20.56614,28.06975z    " style="fill:#F9D9C0;"/><circle cx="24.11679" cy="31.76548" r="0.92504" style="fill:#FFFFFF;"/><path d="M18.07036,21.92716c0,0-0.69591-1.38552-0.96515-1.82924s-0.96852,0.03034-0.70422,1.26364    c0.26431,1.2333,0.22677,2.72409,1.42128,2.72958c0,0,0.51269,1.96898,1.68752,3.10903    c1.17483,1.14005,2.95786,2.16767,4.4902,2.08308s3.23569-0.5659,4.40329-2.10221s1.54453-3.0353,1.54453-3.0353    s0.83417,0.3695,1.19053-0.73352s0.94991-2.28049,0.15566-3.42984c0,0-0.68038,0.1415-1.28252,2.17498    c0,0,0.0105-2.68488-0.47755-3.61712s-1.65148-1.64954-1.89462-2.06352s-0.30832-0.66141-0.30832-0.66141    s-2.18904,2.27732-4.97565,2.92349c0,0,0.63604-0.89765-0.00506-1.28346c-0.6411-0.38581-2.48046,0.62359-2.93606,1.09125    C18.9586,19.01424,18.01241,20.92888,18.07036,21.92716z" style="fill:#F9D9C0;"/><path d="M27.35817,10.52781c0.66483-2.66728-1.31248-4.64399-3.2898-4.58835    c-1.97731-0.05564-3.95462,1.92107-3.28968,4.58835" style="fill:#A67358;"/><path d="M16.96818,19.803c-1.45557-5.8392,2.77139-10.15671,7.10019-10.03482    c4.32891-0.12188,8.65771,4.20599,7.20226,10.04519c-0.63937,0.44894-1.25915,2.344-1.25915,2.344    c0.19619-0.85007-0.31761-2.82323-0.42521-3.41974c-0.22165-1.22816-2.10196-1.80555-2.25529-2.92231    c0,0-2.78994,2.58143-5.22702,3.06075c0,0,1.2186-1.65945-0.09619-1.40128c-0.51023,0.10023-1.399,0.47486-2.2955,0.89592    c-0.4153,0.19503-0.74812,0.53407-0.92403,0.95778c-0.30091,0.72438-0.72611,1.91084-0.72611,2.82888L16.96818,19.803z" style="fill:#A67358;"/><g><path d="     M30.04915,24.0909c0.8852,0.15679,1.18784-0.73959,1.44554-1.7817c0.24653-0.98612,0.35862-2.10668-0.39226-2.35321" style="fill:none;stroke:#30302F;stroke-width:0.8;stroke-linecap:round;stroke-linejoin:round;stroke-miterlimit:10;"/><path d="     M16.95366,19.92154c-0.8215,0.15377-0.6404,1.14717-0.40044,2.18859c0.23985,1.04153,0.44756,2.13468,1.26906,1.981" style="fill:none;stroke:#30302F;stroke-width:0.8;stroke-linecap:round;stroke-linejoin:round;stroke-miterlimit:10;"/><path d="     M30.01148,24.11175c-0.75941,2.98555-3.211,5.17149-6.11822,5.17149c-2.85445,0-5.26561-2.28951-6.07098-5.19211" style="fill:none;stroke:#30302F;stroke-width:0.8;stroke-linecap:round;stroke-linejoin:round;stroke-miterlimit:10;"/></g><g><path d="     M20.60381,29.36308l-4.93787,1.44336c-2.67704,0.78245-4.78787,2.65516-5.69612,5.05353l-1.32378,3.49601     c0,0,14.71614,6.06914,30.7079,0.02799l-1.32389-3.49601c-0.90825-2.39837-3.01896-4.27108-5.696-5.05364l-4.93798-1.44324" style="fill:none;stroke:#30302F;stroke-width:0.8;stroke-linecap:round;stroke-linejoin:round;stroke-miterlimit:10;"/></g><g><path d="     M20.6924,28.24307l-0.08963,1.12058l-4.94167,1.44555c-2.66691,0.7844-4.78476,2.65573-5.69243,5.05376L8.6464,39.3592     c0,0,14.71303,6.06223,30.7034,0.02235l-1.32228-3.49612c-0.90755-2.39803-3.01424-4.26935-5.69243-5.05378l-4.94167-1.44552     l-0.08963-1.21019" style="fill:none;stroke:#30302F;stroke-width:0.8;stroke-linecap:round;stroke-linejoin:round;stroke-miterlimit:10;"/></g><g><path d="     M30.04915,24.0909c0.8852,0.15679,1.18784-0.73959,1.44554-1.7817c0.24653-0.98612,0.35862-2.10668-0.39226-2.35321" style="fill:none;stroke:#30302F;stroke-width:0.8;stroke-linecap:round;stroke-linejoin:round;stroke-miterlimit:10;"/><path d="     M16.95366,19.92154c-0.8215,0.15377-0.6404,1.14717-0.40044,2.18859c0.23985,1.04153,0.44756,2.13468,1.26906,1.981" style="fill:none;stroke:#30302F;stroke-width:0.8;stroke-linecap:round;stroke-linejoin:round;stroke-miterlimit:10;"/><path d="     M30.01148,24.11175c-0.75941,2.98555-3.211,5.17149-6.11822,5.17149c-2.85445,0-5.26561-2.28951-6.07098-5.19211" style="fill:none;stroke:#30302F;stroke-width:0.8;stroke-linecap:round;stroke-linejoin:round;stroke-miterlimit:10;"/></g><path d="    M16.96818,19.803c-1.45557-5.8392,2.77139-10.15671,7.10019-10.03482c4.32891-0.12188,8.65771,4.20599,7.20226,10.04519    c-0.63937,0.44894-1.25915,2.344-1.25915,2.344c0.19619-0.85007-0.31761-2.82323-0.42521-3.41974    c-0.22165-1.22816-2.10196-1.80555-2.25529-2.92231c0,0-2.78994,2.58143-5.22702,3.06075c0,0,1.2186-1.65945-0.09619-1.40128    c-0.51023,0.10023-1.399,0.47486-2.2955,0.89592c-0.4153,0.19503-0.74812,0.53407-0.92403,0.95778    c-0.30091,0.72438-0.72611,1.91084-0.72611,2.82888L16.96818,19.803z" style="fill:none;stroke:#30302F;stroke-width:0.8;stroke-linecap:round;stroke-linejoin:round;stroke-miterlimit:10;"/><path d="    M27.35817,10.52781c0.66483-2.66728-1.31248-4.64399-3.2898-4.58835c-1.97731-0.05564-3.95462,1.92107-3.28968,4.58835" style="fill:none;stroke:#30302F;stroke-width:0.8;stroke-linecap:round;stroke-linejoin:round;stroke-miterlimit:10;"/><path d="    M31.70056,30.64919c0,0-1.60717,5.04143-7.70062,9.09813c0,0-4.30415-1.63194-7.30387-9.24201" style="fill:none;stroke:#30302F;stroke-width:0.8;stroke-linecap:round;stroke-linejoin:round;stroke-miterlimit:10;"/><path d="    M27.39342,29.38612c0,0-3.05548,3.10617-6.79065-0.02246" style="fill:none;stroke:#30302F;stroke-width:0.8;stroke-linecap:round;stroke-linejoin:round;stroke-miterlimit:10;"/><circle cx="24.11679" cy="31.76548" r="0.92504" style="fill:none;stroke:#30302F;stroke-width:0.8;stroke-linecap:round;stroke-linejoin:round;stroke-miterlimit:10;"/><path d="    M22.56915,25.82364c0,0,1.25926,0.72001,2.85791,0" style="fill:none;stroke:#30302F;stroke-width:0.8;stroke-linecap:round;stroke-linejoin:round;stroke-miterlimit:10;"/><path d="    M23.28927,24.09966c0.11923,0.02304,0.23881,0.04424,0.35862,0.06371c0.13778,0.02246,0.27729,0.04251,0.41714,0.0356    c0.21566-0.0106,0.43016-0.0682,0.6419-0.10783" style="fill:none;stroke:#30302F;stroke-width:0.8;stroke-linecap:round;stroke-linejoin:round;stroke-miterlimit:10;"/><g><path d="     M20.04382,19.83813c0,0,1.56581-0.59156,2.89685,0.45505" style="fill:none;stroke:#30302F;stroke-width:0.8;stroke-linecap:round;stroke-linejoin:round;stroke-miterlimit:10;"/><path d="     M28.09304,19.83813c0,0-1.56581-0.59156-2.89685,0.45505" style="fill:none;stroke:#30302F;stroke-width:0.8;stroke-linecap:round;stroke-linejoin:round;stroke-miterlimit:10;"/><path d="     M25.54951,21.36156c0,0,1.51282-0.41,1.94955,0" style="fill:none;stroke:#30302F;stroke-width:0.8;stroke-linecap:round;stroke-linejoin:round;stroke-miterlimit:10;"/><path d="     M22.51558,21.36156c0,0-1.5127-0.41-1.94943,0" style="fill:none;stroke:#30302F;stroke-width:0.8;stroke-linecap:round;stroke-linejoin:round;stroke-miterlimit:10;"/></g></g></g></svg>